# Wavefront object file R Knee Cap
#   created by IRONCAD 8.0
#   at 17:15, Jul 14, 2016

g R_rpatella0
v -2.53395 -24.6948 -0.130972
v -2.56469 -24.7271 -0.086263
v -2.91669 -24.9077 -0.613061
v -3.49836 -25.0123 -0.693317
v -3.74368 -25.2325 -0.517046
v -3.75874 -24.9385 -0.614136
v -2.67197 -24.2352 -0.130004
v -4.20297 -24.3802 -0.36485
v -4.1873 -24.6102 -0.357806
v -3.5291 -24.58 0.087753
v -4.1415 -24.3431 -0.547517
v -2.67197 -24.2729 0.067719
v -4.11076 -24.633 -0.588397
v -4.00407 -24.9184 -0.307053
v -3.5749 -25.2766 -0.135611
v -3.80456 -25.2265 -0.256886
v -2.67197 -24.685 0.038236
v -3.5291 -25.2466 -0.563978
v -3.26871 -23.7618 -0.527217
v -3.51402 -24.1349 0.072529
v -4.01913 -23.918 -0.441
vn 0.61179 -0.778178 -0.141958
vn -0.355881 -0.309358 -0.881843
vn 0.715828 0.216392 -0.663901
vn -0.560123 -0.0127935 0.828311
vn -0.940492 -0.0742239 -0.331611
vn 0.956334 0.287113 0.0546844
vn -0.0887576 0.129859 -0.987552
vn -0.360947 -0.342835 -0.867284
vn -0.949197 -0.0570129 -0.309475
vn -0.818765 -0.528074 -0.225303
vn -0.520215 -0.229547 0.822608
vn -0.489583 -0.17802 0.853591
vn 0.0174597 -0.306313 0.951771
vn -0.544472 -0.189161 0.817171
vn -0.812676 -0.555062 -0.177379
vn -0.168265 -0.981908 -0.0868543
vn -0.0635132 -0.997948 0.00815355
vn 0.478223 -0.878176 -0.0104511
vn 0.482661 -0.875523 -0.0222959
vn 0.0804672 0.285406 -0.955023
vn -0.21884 -0.449398 -0.866112
vn 0.205319 -0.493486 -0.845172
vn 0.136731 0.815034 0.563049
vn 0.74873 -0.0473028 0.661185
vn 0.0488233 -0.0712749 0.996261
vn 0.371552 -0.734065 0.568417
vn 0.82333 0.00205727 0.56756
vn -0.547273 0.0471252 0.835626
vn 0.0112464 0.0338052 0.999365
vn -0.821829 -0.525081 -0.221104
vn -0.334793 -0.310823 -0.889552
vn -0.587819 0.353652 0.727598
vn -0.0220542 0.0679446 -0.997445
vn -0.123975 0.864464 0.487167
vn -0.914624 0.323896 -0.241979
vn -0.167711 0.284764 -0.943813
vn 0.668692 0.257657 -0.69747
vn 0.547836 0.821813 0.156525
f 1//1 2//1 3//1
f 4//2 5//2 6//2
f 7//3 1//3 3//3
f 8//4 9//4 10//4
f 9//5 8//5 11//5
f 7//6 12//6 1//6
f 4//7 13//7 11//7
f 4//8 6//8 13//8
f 13//9 9//9 11//9
f 5//10 14//10 13//10
f 14//11 15//11 10//11
f 14//12 16//12 15//12
f 10//13 15//13 17//13
f 9//14 14//14 10//14
f 5//15 16//15 14//15
f 15//16 16//16 18//16
f 16//17 5//17 18//17
f 2//18 15//18 18//18
f 2//19 18//19 3//19
f 3//20 4//20 11//20
f 18//21 5//21 4//21
f 18//22 4//22 3//22
f 19//23 20//23 12//23
f 12//24 17//24 2//24
f 10//25 17//25 12//25
f 2//26 17//26 15//26
f 12//27 2//27 1//27
f 8//28 10//28 20//28
f 20//29 10//29 12//29
f 13//30 14//30 9//30
f 6//31 5//31 13//31
f 21//32 8//32 20//32
f 3//33 11//33 19//33
f 21//34 20//34 19//34
f 11//35 8//35 21//35
f 11//36 21//36 19//36
f 7//37 3//37 19//37
f 7//38 19//38 12//38
# statistics: 38 polygons, 21 vertices
